HIERARCHY
ROOT Hips
{
	OFFSET -3.958830 18.904000 13.208200
	CHANNELS 6 Xposition Yposition Zposition Zrotation Yrotation Xrotation 
	JOINT LHipJoint
	{
		OFFSET 0.000000 0.000000 0.000000
		CHANNELS 3 Zrotation Yrotation Xrotation
		JOINT LeftUpLeg
		{
			OFFSET 1.800000 -1.400000 0.085000
			CHANNELS 3 Zrotation Yrotation Xrotation
			JOINT LeftLeg
			{
				OFFSET 2.215000 -6.000000 0.000000
				CHANNELS 3 Zrotation Yrotation Xrotation
				JOINT LeftFoot
				{
					OFFSET 2.500000 -6.900000 0.000000
					CHANNELS 3 Zrotation Yrotation Xrotation
					JOINT LeftToeBase
					{
						OFFSET 0.200000 -0.500000 1.950000
						CHANNELS 3 Zrotation Yrotation Xrotation
						End Site
						{
							OFFSET 0.000000 0.000000 0.000000
						}
					}
				}
			}
		}
	}
	JOINT RHipJoint
	{
		OFFSET 0.000000 0.000000 0.000000
		CHANNELS 3 Zrotation Yrotation Xrotation
		JOINT RightUpLeg
		{
			OFFSET -1.800000 -1.400000 0.085000
			CHANNELS 3 Zrotation Yrotation Xrotation
			JOINT RightLeg
			{
				OFFSET -2.215000 -6.000000 0.000000
				CHANNELS 3 Zrotation Yrotation Xrotation
				JOINT RightFoot
				{
					OFFSET -2.500000 -6.900000 0.000000
					CHANNELS 3 Zrotation Yrotation Xrotation
					JOINT RightToeBase
					{
						OFFSET -0.200000 -0.500000 1.950000
						CHANNELS 3 Zrotation Yrotation Xrotation
						End Site
						{
							OFFSET 0.000000 0.000000 0.000000
						}
					}
				}
			}
		}
	}
	JOINT LowerBack
	{
		OFFSET 0.000000 0.000000 0.000000
		CHANNELS 3 Zrotation Yrotation Xrotation
		JOINT Spine
		{
			OFFSET -0.087000 1.940000 -0.288900
			CHANNELS 3 Zrotation Yrotation Xrotation
			JOINT Spine1
			{
				OFFSET 0.000000 1.950000 0.060000
				CHANNELS 3 Zrotation Yrotation Xrotation
				JOINT Neck
				{
					OFFSET 0.000000 0.000000 0.000000
					CHANNELS 3 Zrotation Yrotation Xrotation
					JOINT Neck1
					{
						OFFSET 0.000000 1.600000 0.340000
						CHANNELS 3 Zrotation Yrotation Xrotation
						JOINT Head
						{
							OFFSET 0.000000 1.667000 -0.240000
							CHANNELS 3 Zrotation Yrotation Xrotation
							End Site
							{
								OFFSET 0.000000 0.000000 0.000000
							}
						}
					}
				}
				JOINT LeftShoulder
				{
					OFFSET 0.000000 0.000000 0.000000
					CHANNELS 3 Zrotation Yrotation Xrotation
					JOINT LeftArm
					{
						OFFSET 2.700000 1.550000 -0.730000
						CHANNELS 3 Zrotation Yrotation Xrotation
						JOINT LeftForeArm
						{
							OFFSET 5.450000 0.000000 0.000000
							CHANNELS 3 Zrotation Yrotation Xrotation
							JOINT LeftHand
							{
								OFFSET 3.450000 0.000000 0.000000
								CHANNELS 3 Zrotation Yrotation Xrotation
								JOINT LeftHandIndex1
								{
									OFFSET 0.750000 0.000000 0.000000
									CHANNELS 3 Zrotation Yrotation Xrotation
									End Site
									{
										OFFSET 0.000000 0.000000 0.000000
									}
								}
							}
						}
					}
				}
				JOINT RightShoulder
				{
					OFFSET 0.000000 0.000000 0.000000
					CHANNELS 3 Zrotation Yrotation Xrotation
					JOINT RightArm
					{
						OFFSET -2.700000 1.550000 -0.730000
						CHANNELS 3 Zrotation Yrotation Xrotation
						JOINT RightForeArm
						{
							OFFSET -5.450000 0.000000 0.000000
							CHANNELS 3 Zrotation Yrotation Xrotation
							JOINT RightHand
							{
								OFFSET -3.450000 0.000000 0.000000
								CHANNELS 3 Zrotation Yrotation Xrotation
								JOINT RightHandIndex1
								{
									OFFSET -0.750000 0.000000 0.000000
									CHANNELS 3 Zrotation Yrotation Xrotation
									End Site
									{
										OFFSET 0.000000 0.000000 0.000000
									}
								}
							}
						}
					}
				}
			}
		}
	}
}
MOTION
Frames: 13
Frame Time: 0.016667
0.696560 17.223420 -0.682330 -18.607160 26.859245 -13.533996 -15.212895 11.969435 2.849462 16.311912 -2.107656 -25.741984 -8.021017 12.932757 38.544125 -0.532180 8.456467 1.443932 0.103420 -0.388470 0.109560 18.526311 -8.576439 5.171806 -7.007518 17.285393 -39.415534 14.102448 -28.051288 80.144364 -3.014418 -14.598518 -0.146556 -0.053870 0.294310 0.029700 -4.266532 -1.679533 -9.444813 13.363236 -3.386708 35.563408 -8.813882 1.974531 -3.058966 2.383298 -4.889752 -7.846423 -15.716012 2.257842 59.504691 5.170880 -8.179040 -19.821180 -25.126727 -2.937187 -1.769624 -36.678940 -5.204504 -5.846675 2.256852 -24.435661 -2.412104 -3.720920 2.171096 1.166250 -0.163030 0.040680 0.021370 19.616477 8.076224 4.871009 52.648042 2.428229 -13.299153 -0.548633 31.106924 -1.364616 1.829546 -0.613926 -0.618520 0.703140 0.447680 -0.382790 
0.660410 17.229500 -0.746920 -19.827055 27.666110 -15.084715 -15.244350 11.944200 2.816593 17.152582 -1.965207 -26.051490 -7.232129 12.721548 39.066213 -0.533288 8.438791 1.412289 0.143440 -0.312180 0.129430 18.517266 -8.384411 5.337390 -6.855753 18.238738 -40.634760 17.771927 -29.179769 76.913856 -3.031376 -14.447264 -0.113666 -0.026660 0.243150 0.040090 -4.208497 -1.787347 -9.528062 13.806167 -3.715498 38.498976 -8.565187 2.667594 -1.913711 2.549963 -4.272652 -8.872349 -14.483661 1.159734 59.384400 5.759290 -8.306670 -22.164150 -26.887200 -7.684273 -0.581506 -33.243357 -6.031746 -6.029885 4.215913 -25.522506 -2.761489 -3.662939 2.198436 1.172470 -0.190920 0.087350 0.012400 21.196414 12.755494 6.477643 50.586385 2.284153 -14.918952 -3.218104 35.140689 -2.353127 1.749312 -0.651497 -0.577580 0.687710 0.428080 -0.378200 
0.601220 17.242830 -0.844500 -21.275749 29.179557 -17.369605 -15.268237 11.887586 2.768910 18.020878 -1.955690 -26.324456 -6.256470 12.430537 39.944343 -0.528178 8.416834 1.375906 0.247320 -0.147460 0.170590 18.525064 -8.186077 5.506592 -7.330427 19.145406 -42.500141 22.108997 -30.068139 72.744660 -3.037241 -14.135406 -0.044849 0.047130 0.172100 0.041790 -4.212897 -1.834227 -9.591684 14.233915 -4.999929 42.574334 -8.734280 2.740588 0.327658 2.549079 -4.177399 -10.138040 -14.077833 0.727534 58.202076 7.552160 -8.023190 -26.333790 -28.514587 -13.742219 1.093573 -27.978019 -6.641480 -6.751377 6.915840 -27.710702 -3.365679 -3.546836 2.270774 1.180720 -0.245630 0.154380 0.026830 22.998639 18.922089 8.029078 46.594813 4.768723 -15.040968 -8.702306 35.420758 -3.957823 1.691086 -0.702914 -0.515910 0.681730 0.373480 -0.362460 
0.541320 17.235850 -0.935230 -22.575723 30.675403 -19.170102 -15.292063 11.771341 2.739870 18.858060 -2.103585 -26.562211 -6.088321 12.289659 40.095376 -0.541421 8.435718 1.368452 0.276240 -0.094640 0.169640 18.550408 -7.929138 5.709719 -8.469195 19.980834 -45.840298 25.112113 -30.885862 70.485493 -3.062267 -14.041976 -0.021304 0.075270 0.173050 0.041540 -4.225776 -1.923068 -9.675335 14.233627 -6.687479 46.748757 -9.151744 2.222889 2.119083 2.436091 -4.790702 -11.322982 -15.105704 0.247892 54.543208 9.188080 -8.238620 -30.314930 -28.191265 -18.370884 2.401058 -23.664372 -7.007198 -7.689792 10.562303 -30.042711 -4.354849 -3.477244 2.283407 1.202950 -0.274230 0.184810 0.043930 23.049168 23.792933 9.349796 43.100579 6.713949 -16.022253 -12.433474 37.610799 -5.409717 1.621119 -0.716513 -0.511080 0.721010 0.364080 -0.343450 
0.475450 17.234780 -1.025690 -22.965919 32.696686 -20.075366 -15.333138 11.701569 2.724954 18.584455 -2.609869 -26.985349 -6.071390 11.931217 39.694508 -0.560876 8.302101 1.433728 0.263320 -0.087350 0.128990 18.542333 -7.699420 5.902550 -11.267063 19.793273 -49.404471 29.162206 -31.585217 66.879142 -3.005718 -13.789889 0.041714 0.079930 0.200610 0.033280 -4.181749 -2.111618 -9.732835 12.967981 -7.694549 50.454195 -8.849767 1.495775 3.490412 2.105590 -5.403819 -12.478544 -15.868694 -0.439699 50.453516 10.364400 -8.625220 -32.454180 -26.935496 -21.948984 3.534592 -19.840269 -6.609367 -8.642263 13.178751 -32.226983 -5.162275 -3.434450 2.310068 1.194450 -0.276780 0.178930 0.059930 22.652952 27.585441 10.382464 39.491538 7.912032 -17.523999 -16.603666 40.289390 -7.280027 1.555986 -0.736562 -0.515390 0.749590 0.371750 -0.317390 
0.424990 17.248910 -1.109030 -23.763154 34.277222 -20.919964 -15.361047 11.628629 2.711323 18.481390 -2.865457 -27.781774 -5.620169 11.406620 39.187213 -0.535009 8.021399 1.523622 0.304010 -0.003760 0.124290 18.549778 -7.529909 6.049032 -13.064084 19.742130 -52.083899 31.360000 -31.760391 64.945122 -2.983684 -13.619880 0.086324 0.094020 0.157870 0.030670 -4.182573 -2.204571 -9.774189 12.599426 -8.749721 53.673723 -8.833929 1.103024 4.701316 1.994706 -5.976051 -13.837889 -16.517199 -1.320563 46.877843 11.615180 -9.017770 -34.671190 -24.918874 -24.944957 4.495852 -17.084186 -6.074834 -9.688610 15.444344 -33.968671 -5.881330 -3.345579 2.400958 1.154580 -0.309850 0.202930 0.075400 21.041579 30.929364 11.357300 37.272145 8.512655 -19.389401 -21.677591 42.680319 -9.784071 1.531914 -0.795731 -0.449280 0.711880 0.325710 -0.280920 
0.385900 17.266660 -1.171230 -24.681645 35.010168 -21.688273 -15.372682 11.580325 2.679099 18.641365 -2.791110 -28.259419 -5.247495 10.987900 38.301533 -0.566150 7.825924 1.601625 0.244630 -0.069510 0.077360 18.565429 -7.430412 6.149404 -14.001545 20.072134 -53.711407 32.358571 -31.401056 63.720234 -2.918267 -13.428411 0.129776 0.055060 0.186470 0.021020 -4.209002 -2.218008 -9.797839 12.391503 -9.505950 56.126069 -9.063025 1.020696 5.539558 1.960913 -6.476293 -15.464727 -17.105184 -1.950527 44.254047 12.899980 -9.580420 -35.564470 -21.845594 -27.265547 5.603360 -15.840645 -4.651938 -10.467187 16.993990 -34.867705 -6.425292 -3.315750 2.411691 1.153740 -0.313070 0.184730 0.062880 18.257182 33.730693 12.172991 36.110536 8.899041 -21.032768 -25.205454 44.384379 -11.717012 1.498475 -0.782348 -0.466250 0.724950 0.360150 -0.266990 
0.357700 17.287800 -1.209300 -25.319702 35.454742 -22.139802 -15.369150 11.523427 2.648762 18.661851 -2.728419 -28.684190 -4.769446 10.663427 37.936373 -0.566847 7.672766 1.639401 0.219820 -0.094330 0.037530 18.586534 -7.405468 6.193400 -14.343881 20.360080 -54.404839 33.053241 -31.408588 63.243813 -2.902894 -13.399303 0.135544 0.024670 0.181420 0.034740 -4.277051 -2.116982 -9.811355 12.134004 -10.084616 57.694997 -9.704503 1.003839 5.820839 1.952684 -6.720108 -16.715366 -17.320828 -2.075371 42.644880 14.224250 -9.674330 -35.905520 -19.172453 -28.530823 6.496472 -15.071526 -2.941197 -10.821344 17.883895 -34.791171 -6.558227 -3.286773 2.479069 1.144570 -0.318900 0.178000 0.052730 15.750735 35.288907 12.640957 36.171808 9.199199 -21.603951 -27.512742 44.086917 -12.622540 1.494321 -0.813322 -0.443840 0.681090 0.375370 -0.254330 
0.339660 17.310110 -1.220920 -25.648746 35.519375 -21.827291 -15.370643 11.506442 2.656836 18.703670 -2.602894 -29.135355 -4.561893 10.448325 37.246931 -0.542026 7.499324 1.718286 0.166800 -0.129640 -0.009010 18.589906 -7.409959 6.191831 -14.008516 20.615397 -54.343013 32.509776 -31.191691 63.683574 -2.888628 -13.403715 0.161112 -0.014510 0.200750 0.012720 -4.280346 -2.096230 -9.814633 11.539425 -9.916771 58.117190 -9.754454 1.192252 5.632876 1.884341 -6.791100 -17.711894 -17.132608 -2.226032 41.285097 14.890890 -9.577960 -35.716100 -17.355942 -29.089617 7.285198 -15.752092 -0.993413 -11.065779 18.555256 -34.507551 -6.617725 -3.270132 2.483430 1.118320 -0.311770 0.163090 0.051100 14.202836 36.171985 13.106112 37.266120 8.764934 -21.610143 -29.017237 42.509089 -12.811107 1.525166 -0.826937 -0.442380 0.682920 0.381430 -0.234110 
0.341880 17.326730 -1.220920 -26.454041 35.308222 -21.606199 -15.369118 11.453950 2.733446 19.467738 -2.283062 -29.730178 -5.005689 10.588612 36.549182 -0.481424 7.445521 1.750976 0.159100 -0.122400 -0.034050 18.602396 -7.391343 6.131896 -13.441294 20.863880 -53.657888 31.688788 -31.124749 64.331464 -2.904562 -13.444767 0.175280 -0.038520 0.200010 0.003620 -4.270919 -2.123500 -9.816876 11.868798 -10.212979 57.694525 -9.633099 1.055440 4.840978 1.949546 -7.797274 -17.883469 -18.705317 -2.239120 39.581633 15.428000 -9.938240 -36.314090 -16.286684 -28.082506 7.662497 -18.361608 0.439687 -11.078427 19.448648 -34.233001 -6.852163 -3.227590 2.500121 1.089830 -0.324390 0.163800 0.070670 13.169569 36.160131 13.132739 37.847567 8.650449 -21.101243 -26.653308 42.249075 -11.705259 1.549275 -0.839036 -0.412910 0.670600 0.358310 -0.203550 
0.357090 17.357370 -1.195990 -27.071347 34.572814 -21.257364 -15.356446 11.447854 2.776253 20.251322 -1.761301 -29.966877 -5.198327 10.673925 35.703026 -0.450768 7.398828 1.777689 0.106440 -0.182000 -0.085150 18.614424 -7.443457 6.041305 -12.138562 21.326593 -52.114656 29.804792 -30.702103 65.759334 -2.898992 -13.511287 0.168147 -0.082960 0.225280 -0.003740 -4.277124 -2.094100 -9.800675 12.238140 -10.005285 56.543009 -9.394326 1.244785 3.729486 1.790027 -8.624108 -17.892140 -20.077130 -1.880674 38.602256 16.467880 -10.267480 -35.849020 -15.801246 -26.741814 7.986317 -21.745775 2.185703 -11.079231 18.798620 -34.386133 -6.740454 -3.203011 2.502040 1.073400 -0.323700 0.142020 0.073310 13.162486 35.616945 13.259434 39.539782 7.478560 -20.797162 -24.090038 42.273796 -10.625072 1.575525 -0.827563 -0.416220 0.660360 0.374110 -0.183950 
0.384260 17.386080 -1.144110 -27.001990 33.808400 -20.473296 -15.361999 11.529427 2.850785 20.911393 -1.365921 -29.802605 -5.756471 10.900115 34.865272 -0.415395 7.402378 1.797350 0.049660 -0.259770 -0.108220 18.585261 -7.544745 5.879710 -10.600418 21.122832 -49.475499 26.987465 -30.196693 67.955659 -2.889866 -13.638360 0.157773 -0.135560 0.245650 -0.018960 -4.186654 -2.193350 -9.764836 11.824190 -8.786328 54.745498 -8.318631 1.477521 2.040713 1.474275 -8.942032 -17.309281 -20.379903 -1.950501 37.841262 16.177680 -10.497490 -34.605220 -16.190215 -24.497787 7.963825 -25.553220 3.920997 -11.151746 17.286414 -34.840707 -6.414155 -3.203289 2.479851 1.054040 -0.307650 0.106910 0.064440 14.172505 33.836282 13.254049 41.928589 4.497017 -21.330733 -19.578374 44.688849 -9.458385 1.580989 -0.800247 -0.431000 0.646730 0.383710 -0.186600 
0.419190 17.409920 -1.083340 -26.217747 32.733720 -19.481401 -15.356280 11.702780 2.834609 20.817394 -0.963076 -28.850862 -6.143782 11.008198 33.979462 -0.359949 7.290557 1.838441 0.039540 -0.270460 -0.114280 18.542043 -7.749353 5.721125 -9.451991 20.721428 -46.407485 23.886175 -29.296265 70.329966 -2.887223 -13.724786 0.140572 -0.164450 0.231400 -0.008390 -4.122690 -2.206809 -9.694438 10.941965 -7.037258 52.157818 -7.504910 1.796214 0.678424 1.173560 -8.720675 -16.754531 -19.977328 -1.200495 38.791877 15.608440 -9.978480 -32.317160 -16.373584 -22.108285 7.897143 -29.013085 6.088559 -11.549966 14.098159 -35.770440 -5.662270 -3.190943 2.521180 1.022450 -0.299200 0.104340 0.068580 14.840330 31.645210 12.997011 44.277026 2.803733 -20.399622 -14.835350 43.350555 -7.366498 1.651720 -0.824829 -0.400450 0.590960 0.364290 -0.180940 
